<mxfile host="app.diagrams.net" modified="2023-11-24T13:53:21.451Z" agent="Mozilla/5.0 (Windows NT 10.0; Win64; x64; rv:120.0) Gecko/20100101 Firefox/120.0" etag="HQTRzMzR0nb1KINuxhYW" version="22.1.3" type="github">
  <diagram id="C5RBs43oDa-KdzZeNtuy" name="Page-1">
    <mxGraphModel dx="1221" dy="733" grid="1" gridSize="10" guides="1" tooltips="1" connect="1" arrows="1" fold="1" page="1" pageScale="1" pageWidth="827" pageHeight="1169" math="0" shadow="0">
      <root>
        <mxCell id="WIyWlLk6GJQsqaUBKTNV-0" />
        <mxCell id="WIyWlLk6GJQsqaUBKTNV-1" parent="WIyWlLk6GJQsqaUBKTNV-0" />
        <mxCell id="4-b9_ulazWs0U883Xy_r-4" value="" style="edgeStyle=orthogonalEdgeStyle;rounded=0;orthogonalLoop=1;jettySize=auto;html=1;" edge="1" parent="WIyWlLk6GJQsqaUBKTNV-1" source="4-b9_ulazWs0U883Xy_r-0" target="4-b9_ulazWs0U883Xy_r-3">
          <mxGeometry relative="1" as="geometry" />
        </mxCell>
        <mxCell id="4-b9_ulazWs0U883Xy_r-0" value="&lt;div&gt;RTMP 2.0&lt;/div&gt;" style="rounded=0;whiteSpace=wrap;html=1;" vertex="1" parent="WIyWlLk6GJQsqaUBKTNV-1">
          <mxGeometry x="5" y="80" width="110" height="20" as="geometry" />
        </mxCell>
        <mxCell id="4-b9_ulazWs0U883Xy_r-6" value="" style="edgeStyle=orthogonalEdgeStyle;rounded=0;orthogonalLoop=1;jettySize=auto;html=1;" edge="1" parent="WIyWlLk6GJQsqaUBKTNV-1" source="4-b9_ulazWs0U883Xy_r-3" target="4-b9_ulazWs0U883Xy_r-5">
          <mxGeometry relative="1" as="geometry" />
        </mxCell>
        <mxCell id="4-b9_ulazWs0U883Xy_r-3" value="QGIS" style="rhombus;whiteSpace=wrap;html=1;rounded=0;" vertex="1" parent="WIyWlLk6GJQsqaUBKTNV-1">
          <mxGeometry x="20" y="150" width="80" height="80" as="geometry" />
        </mxCell>
        <mxCell id="4-b9_ulazWs0U883Xy_r-5" value="DTM&lt;br&gt;TXTRN&lt;br&gt;GEOLAYER" style="whiteSpace=wrap;html=1;rounded=0;" vertex="1" parent="WIyWlLk6GJQsqaUBKTNV-1">
          <mxGeometry y="320" width="120" height="60" as="geometry" />
        </mxCell>
      </root>
    </mxGraphModel>
  </diagram>
</mxfile>
